<svg id="Layer_1" data-name="Layer 1" xmlns="http://www.w3.org/2000/svg" xmlns:xlink="http://www.w3.org/1999/xlink" viewBox="0 0 80.2 80.16"><defs><style>.cls-1{fill:url(#linear-gradient);}.cls-2{fill:#fff;}</style><linearGradient id="linear-gradient" x1="682.8" y1="364.58" x2="763" y2="364.58" gradientUnits="userSpaceOnUse"><stop offset="0" stop-color="#ff7bac"/><stop offset="0" stop-color="#fe7f93" stop-opacity="0.99"/><stop offset="0" stop-color="#fc8474" stop-opacity="0.98"/><stop offset="0" stop-color="#fa8959" stop-opacity="0.98"/><stop offset="0" stop-color="#f98d43" stop-opacity="0.97"/><stop offset="0" stop-color="#f89032" stop-opacity="0.97"/><stop offset="0" stop-color="#f79227" stop-opacity="0.96"/><stop offset="0" stop-color="#f79320" stop-opacity="0.96"/><stop offset="0" stop-color="#f7931e" stop-opacity="0.96"/><stop offset="0.2" stop-color="#f68e1f" stop-opacity="0.94"/><stop offset="0.48" stop-color="#f58020" stop-opacity="0.87"/><stop offset="0.82" stop-color="#f36922" stop-opacity="0.77"/><stop offset="1" stop-color="#f15a24" stop-opacity="0.7"/></linearGradient></defs><path class="cls-1" d="M750.42,336.58a40,40,0,0,0-29-12.08c-21.35,0-38.66,16-38.66,35.76,0,19.29,16.51,35,37.18,35.73l0,8.67c23.79-.05,43.06-17.9,43.06-39.92A38.31,38.31,0,0,0,750.42,336.58Z" transform="translate(-682.8 -324.5)"/><path class="cls-2" d="M738,355.93l-17.12-9.14a5.64,5.64,0,0,0-8.29,5V370a5.64,5.64,0,0,0,8.29,5L738,365.88A5.64,5.64,0,0,0,738,355.93Z" transform="translate(-682.8 -324.5)"/></svg>